<svg xmlns="http://www.w3.org/2000/svg" width="512" height="512" viewBox="0 0 512 512">
<g>
<path d="M 248.75 496.44 C245.03,494.00 226.58,482.72 207.75,471.37 C145.36,433.78 122.01,417.07 97.50,392.52 C67.42,362.40 52.94,335.43 47.52,299.49 C45.22,284.27 45.26,94.72 47.55,89.22 C49.37,84.87 53.36,80.42 57.26,78.38 C58.78,77.58 104.16,62.10 158.11,43.97 L 256.20 11.01 L 352.35 43.39 C405.23,61.19 450.30,76.51 452.50,77.43 C457.70,79.61 461.80,83.51 464.10,88.50 C465.87,92.31 465.96,97.25 465.97,191.00 C465.99,273.65 465.75,291.11 464.48,299.50 C459.42,333.13 444.89,361.36 418.50,388.84 C393.94,414.40 369.87,431.85 306.50,470.01 C288.90,480.62 270.35,491.92 265.29,495.14 C260.22,498.36 255.94,500.97 255.79,500.93 C255.63,500.89 252.46,498.87 248.75,496.44 ZM 224.97 444.72 C241.74,454.77 255.81,463.00 256.26,463.00 C257.67,463.00 324.83,422.20 341.00,411.52 C371.46,391.39 395.03,370.70 409.34,351.50 C416.61,341.75 425.69,324.39 428.96,314.00 C434.49,296.44 434.32,299.79 434.72,199.09 C434.95,141.39 434.73,105.33 434.14,104.74 C433.63,104.23 393.49,90.42 344.95,74.06 L 256.70 44.32 L 205.10 61.71 C176.72,71.28 136.50,84.82 115.73,91.80 L 77.95 104.50 L 78.24 201.00 L 78.53 297.50 L 81.17 307.00 C91.38,343.80 115.42,372.51 164.61,406.64 C182.06,418.75 189.50,423.44 224.97,444.72 Z" fill="rgba(0,98,217,1)"/>
<path d="M 255.50 462.64 L 255.76 408.02 L 256.02 353.00 L 297.76 352.98 C335.98,352.96 339.84,352.80 343.50,351.13 C348.64,348.79 354.57,342.20 355.93,337.32 C356.62,334.82 356.99,312.67 356.99,273.36 L 357.00 213.23 L 354.21 207.88 C352.47,204.55 349.80,201.40 347.12,199.52 C343.14,196.71 342.11,196.48 332.51,196.16 L 322.18 195.82 L 321.77 171.16 C321.32,143.96 320.52,139.59 313.66,126.50 C309.45,118.48 296.37,105.33 288.00,100.72 C280.14,96.38 268.44,93.00 261.27,93.00 L 256.00 93.00 L 256.00 69.00 C256.00,55.80 255.70,45.00 255.34,45.00 C255.02,45.00 236.85,51.03 213.16,59.00 L 256.70 44.32 L 344.95 74.06 C393.49,90.42 433.63,104.23 434.14,104.74 C434.73,105.33 434.95,141.39 434.72,199.09 C434.32,299.79 434.49,296.44 428.96,314.00 C425.69,324.39 416.61,341.75 409.34,351.50 C395.03,370.70 371.46,391.39 341.00,411.52 C324.83,422.20 257.67,463.00 256.26,463.00 C256.21,463.00 255.95,462.88 255.50,462.64 ZM 292.77 176.60 L 292.50 195.50 L 274.25 195.77 L 256.00 196.05 L 256.00 121.72 L 261.54 122.29 C268.97,123.06 275.45,126.35 281.55,132.45 C291.36,142.26 293.17,149.37 292.77,176.60 ZM 78.24 201.00 L 77.95 104.50 L 94.97 98.78 L 77.96 104.50 L 78.24 201.00 L 78.53 297.50 L 78.24 201.00 Z" fill="rgba(42,145,249,1)"/>
<path d="M 225.00 444.74 C189.50,423.44 182.06,418.75 164.61,406.64 C115.42,372.51 91.38,343.80 81.17,307.00 L 78.53 297.50 L 78.24 201.00 L 77.96 104.50 L 114.23 92.30 C134.18,85.60 173.94,72.21 202.59,62.55 C231.24,52.90 254.98,45.00 255.34,45.00 C255.70,45.00 256.00,55.80 256.00,69.00 L 256.00 93.00 L 261.27 93.00 C263.99,93.00 267.35,93.49 270.91,94.32 C266.43,93.43 261.66,93.00 256.48,93.00 C244.32,93.00 237.28,94.66 226.03,100.17 C214.24,105.94 203.94,116.24 198.17,128.03 C191.62,141.40 191.00,145.16 191.00,171.60 C191.00,191.82 190.80,194.86 189.42,195.39 C188.55,195.73 183.94,196.01 179.17,196.02 C166.37,196.05 159.66,199.85 155.30,209.50 C153.64,213.18 153.48,218.10 153.21,270.81 C153.03,307.48 153.30,330.18 153.96,333.81 C155.35,341.39 159.23,346.73 165.88,350.21 L 171.23 353.00 L 255.36 352.98 C334.60,352.96 339.73,352.85 343.50,351.13 C339.84,352.80 335.98,352.96 297.76,352.98 L 256.02 353.00 L 255.76 408.02 L 255.50 463.03 ZM 256.00 195.75 C237.41,195.86 221.89,195.60 221.20,195.15 C220.17,194.49 219.96,189.40 220.20,171.41 C220.49,148.98 220.56,148.38 223.17,142.80 C226.58,135.54 233.54,128.58 240.80,125.17 C245.69,122.88 247.68,122.51 256.00,122.50 L 256.00 195.75 ZM 308.16 118.65 C310.51,121.48 312.45,124.20 313.66,126.50 C316.72,132.33 318.57,136.43 319.73,141.60 C319.53,140.92 319.32,140.23 319.08,139.50 C316.28,130.90 313.19,124.83 308.16,118.65 ZM 267.72 123.58 C272.79,124.88 276.62,127.53 281.55,132.45 C277.20,128.10 272.66,125.18 267.72,123.58 ZM 285.35 99.36 C286.27,99.80 287.16,100.25 288.00,100.72 C290.48,102.09 293.38,104.21 296.34,106.72 C292.76,103.76 289.13,101.31 285.35,99.36 Z" fill="rgba(77,176,251,1)"/>
<path d="M 165.88 350.21 C159.23,346.73 155.35,341.39 153.96,333.81 C153.30,330.18 153.03,307.48 153.21,270.81 C153.48,218.10 153.64,213.18 155.30,209.50 C159.66,199.85 166.37,196.05 179.17,196.02 C183.94,196.01 188.55,195.73 189.42,195.39 C190.80,194.86 191.00,191.83 191.00,171.71 L 191.00 171.60 C191.00,156.43 191.20,148.73 192.61,142.39 C191.20,148.74 191.00,156.46 191.00,171.71 L 191.00 195.00 L 219.90 195.00 L 220.14 176.12 C220.01,190.32 220.27,194.56 221.20,195.15 C221.91,195.61 238.25,195.88 257.50,195.74 L 292.50 195.50 L 292.77 176.60 C292.93,165.82 292.74,158.19 291.85,152.30 C290.48,143.32 287.48,138.38 281.55,132.45 C287.48,138.38 290.44,143.20 291.85,152.30 C292.73,158.07 293.00,165.54 293.00,176.10 L 293.00 194.94 L 304.75 195.25 C311.21,195.43 317.78,195.67 319.34,195.78 L 322.18 196.00 L 321.77 171.25 L 322.18 195.82 L 332.51 196.16 C342.11,196.48 343.14,196.71 347.12,199.52 C349.80,201.40 352.47,204.55 354.21,207.88 L 357.00 213.23 L 356.99 273.36 C356.99,312.67 356.62,334.82 355.93,337.32 C354.57,342.20 348.64,348.79 343.50,351.13 C339.73,352.85 334.60,352.96 255.36,352.98 L 171.23 353.00 ZM 248.10 309.47 C250.83,312.57 251.77,313.00 255.85,312.97 C260.78,312.93 262.55,312.01 265.30,308.03 C266.72,305.97 267.00,303.05 267.00,290.43 C267.00,276.24 267.13,275.19 269.14,273.40 C272.23,270.66 274.96,264.13 274.96,259.50 C274.96,249.41 265.81,240.01 256.00,240.01 C246.19,240.01 237.04,249.41 237.04,259.50 C237.04,264.13 239.77,270.66 242.86,273.40 C244.87,275.20 245.00,276.23 245.00,290.62 L 245.00 305.93 ZM 221.51 146.92 C221.90,145.54 222.44,144.37 223.17,142.80 C222.44,144.37 221.90,145.55 221.51,146.92 Z" fill="rgba(251,216,52,1)"/>
<path d="M 248.10 309.47 L 245.00 305.93 L 245.00 290.62 C245.00,276.23 244.87,275.20 242.86,273.40 C239.77,270.66 237.04,264.13 237.04,259.50 C237.04,249.41 246.19,240.01 256.00,240.01 C265.81,240.01 274.96,249.41 274.96,259.50 C274.96,264.13 272.23,270.66 269.14,273.40 C267.13,275.19 267.00,276.24 267.00,290.43 C267.00,303.05 266.72,305.97 265.30,308.03 C262.55,312.01 260.78,312.93 255.85,312.97 C251.77,313.00 250.83,312.57 248.10,309.47 ZM 304.75 195.25 L 293.00 194.94 L 293.00 176.10 C293.00,148.87 291.23,142.14 281.55,132.45 C273.62,124.52 268.53,122.50 256.50,122.50 C247.75,122.50 245.79,122.83 240.80,125.17 C233.54,128.58 226.58,135.54 223.17,142.80 C220.55,148.39 220.49,148.95 220.20,171.75 L 219.90 195.00 L 205.45 195.00 L 191.00 195.00 L 191.00 171.71 C191.00,145.15 191.61,141.41 198.17,128.03 C203.94,116.24 214.24,105.94 226.03,100.17 C237.28,94.66 244.32,93.00 256.48,93.00 C275.44,93.00 288.96,98.70 302.50,112.40 C311.11,121.11 315.36,128.05 319.08,139.50 C321.14,145.83 321.40,148.87 321.77,171.25 L 322.18 196.00 L 319.34 195.78 C317.78,195.67 311.21,195.43 304.75,195.25 Z" fill="rgba(254,254,254,1)"/>
</g>
</svg>