<?xml version="1.0" standalone="no"?>
<!DOCTYPE svg PUBLIC "-//W3C//DTD SVG 20010904//EN"
 "http://www.w3.org/TR/2001/REC-SVG-20010904/DTD/svg10.dtd">
<svg version="1.0" xmlns="http://www.w3.org/2000/svg"
 width="512.000000pt" height="512.000000pt" viewBox="0 0 512.000000 512.000000"
 preserveAspectRatio="xMidYMid meet">

<g transform="translate(0.000000,512.000000) scale(0.100000,-0.100000)"
fill="#000000" stroke="none">
<path d="M1734 2486 c-124 -39 -254 -148 -308 -258 -43 -88 -62 -196 -49 -281
21 -140 89 -263 187 -336 l46 -35 0 -315 c0 -174 3 -333 6 -354 11 -64 63
-138 122 -174 111 -66 229 -51 317 40 31 32 55 68 63 93 8 29 12 139 12 368
l0 327 79 77 c115 113 161 217 161 368 0 226 -141 413 -359 478 -65 19 -218
20 -277 2z"/>
</g>
</svg>
